<svg id="svg" version="1.1" xmlns="http://www.w3.org/2000/svg" xmlns:xlink="http://www.w3.org/1999/xlink" width="400" height="145.45454545454547" viewBox="0, 0, 400,145.45454545454547"><g id="svgg"><path id="path0" d="M48.086 46.018 C 32.718 47.635,22.669 63.540,27.602 78.440 C 32.206 92.344,48.218 99.264,61.167 92.945 C 62.644 92.225,62.649 92.241,59.950 89.423 L 57.562 86.929 56.072 87.378 C 53.660 88.106,53.034 88.201,50.667 88.196 C 39.845 88.175,31.588 78.090,33.600 67.350 C 35.398 57.759,44.671 51.438,54.155 53.339 C 56.168 53.743,55.968 53.836,56.937 52.035 C 57.367 51.237,58.085 49.952,58.533 49.181 C 59.507 47.503,59.495 47.448,58.053 47.003 C 54.804 45.999,51.430 45.666,48.086 46.018 M76.167 46.005 C 68.079 46.962,60.964 51.912,57.304 59.127 C 56.770 60.180,56.333 61.107,56.333 61.187 C 56.333 61.268,58.054 61.333,60.157 61.333 L 63.981 61.333 64.903 60.108 C 77.539 43.320,103.358 58.939,94.665 78.113 C 88.314 92.122,67.455 91.131,62.502 76.583 L 62.218 75.750 58.693 75.705 L 55.167 75.660 55.167 76.148 C 55.167 78.777,58.520 84.867,61.743 88.091 C 75.481 101.837,98.649 94.801,102.786 75.626 C 103.215 73.638,103.212 67.519,102.781 65.500 C 100.112 53.008,88.552 44.540,76.167 46.005 M47.250 62.868 C 47.199 63.078,47.178 65.537,47.203 68.333 L 47.250 73.417 48.500 73.417 L 49.750 73.417 49.833 70.917 C 49.941 67.676,49.992 67.694,52.218 71.750 L 53.187 73.514 54.468 73.465 L 55.750 73.417 55.798 68.500 C 55.825 65.796,55.803 63.340,55.749 63.042 L 55.652 62.500 54.510 62.500 C 53.107 62.500,53.167 62.374,53.167 65.337 C 53.167 68.586,53.116 68.576,51.140 64.935 L 49.864 62.583 48.603 62.535 C 47.409 62.489,47.338 62.506,47.250 62.868 M64.869 62.832 C 63.713 63.356,63.667 63.591,63.667 68.919 L 63.667 73.515 64.875 73.466 L 66.083 73.417 66.167 71.424 C 66.264 69.090,66.137 69.211,68.524 69.183 C 70.104 69.165,70.167 69.123,70.167 68.083 C 70.167 67.080,70.072 67.001,68.857 66.988 C 68.248 66.981,67.412 66.925,67.000 66.863 L 66.250 66.750 66.250 66.005 C 66.250 64.979,66.575 64.839,68.966 64.836 L 70.849 64.833 70.800 63.792 L 70.750 62.750 69.917 62.640 C 68.080 62.396,65.622 62.490,64.869 62.832 M78.281 62.608 C 78.218 62.671,78.167 63.197,78.167 63.778 L 78.167 64.833 79.383 64.833 C 81.090 64.833,81.000 64.580,81.000 69.367 L 81.000 73.500 82.247 73.500 L 83.494 73.500 83.539 69.208 L 83.583 64.917 84.966 64.868 L 86.348 64.820 86.299 63.701 L 86.250 62.583 82.322 62.539 C 80.162 62.514,78.343 62.545,78.281 62.608 M67.448 75.792 C 67.409 75.860,67.282 76.217,67.166 76.583 C 67.049 76.950,66.735 77.688,66.468 78.222 C 66.200 78.757,66.004 79.300,66.032 79.429 C 66.119 79.826,70.664 84.491,70.880 84.405 C 71.664 84.093,74.500 77.571,74.500 76.081 L 74.500 75.667 71.010 75.667 C 69.090 75.667,67.488 75.723,67.448 75.792 " stroke="none" fill="#f6f7f9" fill-rule="evenodd"></path><path id="path1" d="M62.455 17.101 C 62.410 17.146,61.445 17.255,60.311 17.343 C 57.647 17.551,56.102 17.751,55.820 17.925 C 55.697 18.001,55.293 18.116,54.923 18.179 C 54.553 18.243,53.462 18.461,52.500 18.665 C 51.538 18.869,50.450 19.097,50.083 19.172 C 49.273 19.339,49.008 19.432,47.833 19.962 C 47.329 20.189,46.199 20.619,45.322 20.917 C 44.445 21.214,43.432 21.638,43.072 21.858 C 42.712 22.078,42.229 22.346,42.000 22.454 C 41.771 22.563,41.096 22.881,40.500 23.161 C 39.592 23.588,38.273 24.397,37.583 24.950 C 37.492 25.023,37.011 25.270,36.516 25.499 C 36.020 25.727,35.411 26.105,35.162 26.338 C 34.912 26.571,34.380 26.977,33.979 27.241 C 33.002 27.884,30.648 29.731,30.322 30.112 C 30.178 30.279,29.541 30.864,28.905 31.411 C 28.270 31.959,27.509 32.671,27.215 32.995 C 24.079 36.440,23.724 36.861,22.313 38.785 C 21.656 39.683,21.035 40.492,20.934 40.583 C 20.833 40.675,20.569 41.125,20.347 41.583 C 20.125 42.042,19.890 42.454,19.825 42.500 C 19.700 42.588,17.833 45.630,17.833 45.746 C 17.833 45.784,17.419 46.673,16.912 47.723 C 16.405 48.773,15.722 50.371,15.394 51.275 C 15.066 52.178,14.645 53.329,14.459 53.833 C 14.272 54.337,14.055 55.031,13.977 55.375 C 13.797 56.160,13.621 56.877,13.173 58.667 C 12.977 59.446,12.850 60.211,12.891 60.367 C 12.931 60.523,12.896 60.673,12.813 60.701 C 12.729 60.729,12.622 61.164,12.574 61.668 C 12.526 62.171,12.413 62.958,12.322 63.417 C 11.593 67.096,11.653 72.477,12.492 78.667 C 12.798 80.925,12.881 81.333,13.032 81.333 C 13.117 81.333,13.145 81.400,13.095 81.482 C 12.905 81.789,14.116 86.280,14.919 88.250 C 15.032 88.525,15.225 89.087,15.350 89.500 C 15.474 89.912,15.746 90.606,15.955 91.041 C 16.163 91.476,16.333 91.907,16.333 91.999 C 16.333 92.091,16.413 92.167,16.510 92.167 C 16.607 92.167,16.645 92.233,16.595 92.315 C 16.544 92.396,16.810 93.052,17.185 93.773 C 17.560 94.494,18.100 95.533,18.386 96.083 C 18.671 96.633,19.076 97.316,19.287 97.601 C 19.497 97.885,19.875 98.486,20.126 98.935 C 21.298 101.029,25.214 106.056,25.965 106.430 C 26.167 106.531,26.283 106.662,26.223 106.721 C 26.014 106.931,32.092 112.566,32.353 112.405 C 32.434 112.355,32.500 112.386,32.500 112.473 C 32.500 112.980,38.165 116.642,41.333 118.183 C 42.112 118.562,43.023 119.011,43.357 119.181 C 45.862 120.453,52.818 122.555,56.500 123.152 C 57.188 123.263,58.200 123.435,58.750 123.534 C 60.042 123.766,68.467 123.852,70.417 123.653 C 74.654 123.220,83.355 121.116,84.242 120.311 C 84.329 120.231,84.499 120.167,84.619 120.167 C 85.009 120.167,89.370 118.144,91.000 117.208 C 93.661 115.679,96.245 114.041,96.581 113.670 C 96.756 113.476,97.353 113.011,97.908 112.637 C 98.463 112.263,99.217 111.674,99.583 111.330 C 99.950 110.985,100.728 110.263,101.312 109.726 C 102.695 108.456,103.354 107.797,104.642 106.399 C 105.224 105.767,105.980 104.950,106.322 104.583 C 106.664 104.217,107.115 103.632,107.324 103.283 C 107.533 102.935,108.041 102.260,108.452 101.783 C 109.094 101.039,109.458 100.497,110.417 98.861 C 110.508 98.704,110.741 98.353,110.933 98.080 C 111.436 97.365,112.586 95.270,112.545 95.141 C 112.526 95.081,112.621 94.941,112.755 94.829 C 112.890 94.717,113.000 94.541,113.000 94.437 C 113.000 94.333,113.189 93.892,113.421 93.457 C 113.652 93.022,113.791 92.667,113.728 92.667 C 113.666 92.667,113.726 92.535,113.862 92.375 C 114.149 92.036,115.000 90.081,115.000 89.759 C 115.000 89.639,115.112 89.447,115.250 89.333 C 115.388 89.219,115.500 88.952,115.500 88.739 C 115.500 88.527,115.565 88.313,115.645 88.264 C 115.724 88.214,115.836 87.891,115.893 87.545 C 115.950 87.200,116.110 86.702,116.248 86.439 C 116.387 86.177,116.500 85.750,116.500 85.491 C 116.500 85.232,116.567 84.978,116.650 84.927 C 116.732 84.876,116.800 84.570,116.800 84.246 C 116.800 83.922,116.892 83.547,117.004 83.412 C 117.116 83.277,117.152 83.167,117.083 83.167 C 117.015 83.167,117.031 83.073,117.118 82.958 C 117.206 82.844,117.368 82.300,117.479 81.750 C 117.590 81.200,117.752 80.430,117.840 80.039 C 117.928 79.648,118.001 79.011,118.002 78.623 C 118.004 78.234,118.113 77.606,118.245 77.227 C 118.728 75.842,118.532 63.167,118.028 63.167 C 117.967 63.167,117.904 62.660,117.888 62.042 C 117.854 60.677,117.676 59.310,117.504 59.083 C 117.434 58.992,117.323 58.617,117.257 58.250 C 117.191 57.883,117.077 57.508,117.005 57.417 C 116.932 57.325,116.832 56.987,116.782 56.667 C 116.626 55.672,116.479 55.104,116.235 54.558 C 116.106 54.269,116.000 53.960,116.000 53.872 C 116.000 53.647,115.393 51.770,115.199 51.393 C 115.111 51.223,114.965 50.896,114.874 50.667 C 114.686 50.190,114.146 48.993,113.272 47.116 C 112.939 46.401,112.667 45.777,112.667 45.730 C 112.667 45.682,112.455 45.330,112.197 44.947 C 111.939 44.564,111.606 43.987,111.458 43.667 C 111.310 43.346,111.049 42.933,110.878 42.750 C 110.706 42.567,110.512 42.273,110.445 42.098 C 110.290 41.693,108.957 39.690,108.550 39.250 C 108.380 39.067,108.059 38.654,107.837 38.333 C 107.615 38.012,107.385 37.712,107.327 37.667 C 107.269 37.621,107.153 37.458,107.069 37.305 C 106.861 36.925,105.456 35.315,104.292 34.122 C 103.765 33.582,103.333 33.081,103.333 33.009 C 103.333 32.937,103.008 32.624,102.611 32.314 C 102.213 32.004,101.244 31.160,100.457 30.439 C 98.876 28.993,98.727 28.870,97.167 27.732 C 96.571 27.298,95.708 26.664,95.250 26.324 C 94.792 25.983,94.079 25.536,93.667 25.330 C 93.254 25.124,92.354 24.578,91.667 24.117 C 90.979 23.656,89.968 23.096,89.419 22.872 C 88.870 22.648,87.895 22.179,87.252 21.830 C 86.609 21.480,85.708 21.084,85.250 20.949 C 84.792 20.815,83.564 20.358,82.522 19.936 C 81.480 19.513,80.460 19.167,80.255 19.167 C 80.051 19.167,79.666 19.101,79.400 19.020 C 79.134 18.939,78.129 18.709,77.167 18.509 C 76.204 18.309,75.192 18.069,74.917 17.976 C 74.313 17.772,72.510 17.516,70.917 17.408 C 70.275 17.364,69.225 17.258,68.583 17.172 C 67.380 17.010,62.601 16.955,62.455 17.101 M348.583 26.945 C 344.516 27.281,340.816 28.600,338.882 30.404 C 338.431 30.824,337.944 31.261,337.800 31.375 C 336.671 32.267,335.014 35.427,334.501 37.667 C 334.301 38.537,334.069 39.380,333.986 39.539 C 333.722 40.042,333.551 43.152,333.630 46.042 L 333.706 48.833 330.603 48.833 L 327.500 48.833 327.500 53.967 C 327.500 57.737,327.553 59.153,327.700 59.300 C 327.840 59.440,328.763 59.500,330.783 59.500 L 333.667 59.500 333.667 76.085 L 333.667 92.671 339.958 92.627 L 346.250 92.583 346.292 76.042 L 346.335 59.500 350.717 59.500 C 353.904 59.500,355.155 59.445,355.300 59.300 C 355.447 59.153,355.500 57.737,355.500 53.967 L 355.500 48.833 350.897 48.833 L 346.294 48.833 346.365 45.625 C 346.441 42.193,346.485 41.992,347.456 40.715 C 347.976 40.031,349.715 39.333,351.000 39.292 C 351.455 39.277,353.122 39.451,353.917 39.595 C 354.192 39.645,354.642 39.701,354.917 39.718 L 355.417 39.750 355.460 33.545 L 355.504 27.341 355.127 27.259 C 353.572 26.922,350.586 26.779,348.583 26.945 M234.035 27.198 C 233.688 27.545,233.747 92.057,234.095 92.405 C 234.498 92.807,246.579 92.801,246.734 92.398 C 246.791 92.250,246.835 86.280,246.831 79.131 C 246.825 65.398,246.865 64.623,247.616 63.863 C 247.735 63.742,247.833 63.573,247.833 63.488 C 247.833 62.894,250.290 61.310,251.730 60.975 C 252.245 60.856,252.667 60.713,252.667 60.659 C 252.667 60.555,254.676 60.595,255.250 60.710 C 256.395 60.940,256.865 61.100,257.833 61.589 C 259.160 62.260,260.637 63.793,260.772 64.638 C 260.792 64.760,260.862 64.985,260.927 65.138 C 261.152 65.661,261.173 66.705,261.211 79.640 L 261.250 92.583 267.480 92.627 C 272.040 92.659,273.774 92.619,273.945 92.476 C 274.256 92.218,274.173 66.524,273.852 64.000 C 273.650 62.405,272.952 59.235,272.686 58.703 C 272.608 58.546,272.252 57.817,271.897 57.083 C 268.586 50.257,261.697 46.676,254.133 47.850 C 252.249 48.142,249.202 49.411,247.709 50.524 L 246.836 51.176 246.793 39.130 L 246.750 27.083 240.494 27.040 C 235.767 27.007,234.188 27.045,234.035 27.198 M367.333 42.833 L 367.333 48.833 364.331 48.833 L 361.329 48.833 361.373 54.125 L 361.417 59.417 364.368 59.462 L 367.319 59.508 367.376 69.379 C 367.408 74.808,367.487 79.475,367.551 79.750 C 367.614 80.025,367.709 80.503,367.761 80.812 C 367.814 81.121,367.923 81.496,368.004 81.646 C 368.086 81.795,368.269 82.345,368.412 82.869 C 368.756 84.126,369.777 86.322,370.071 86.435 C 370.199 86.484,370.352 86.719,370.412 86.958 C 370.677 88.012,374.059 90.709,376.167 91.546 C 379.639 92.925,387.501 93.446,389.180 92.408 C 389.391 92.278,389.383 80.050,389.172 79.920 C 389.084 79.865,388.352 79.944,387.547 80.095 C 383.694 80.818,381.422 80.055,380.568 77.750 C 380.286 76.986,380.255 76.191,380.205 68.211 L 380.150 59.505 384.700 59.461 L 389.250 59.417 389.294 54.125 L 389.338 48.833 384.752 48.833 L 380.167 48.833 380.167 42.833 L 380.167 36.833 373.750 36.833 L 367.333 36.833 367.333 42.833 M56.167 46.050 C 58.232 46.544,59.771 47.097,59.882 47.386 C 59.960 47.589,57.438 52.312,56.585 53.558 C 56.234 54.072,56.073 54.179,55.781 54.097 C 42.924 50.453,30.857 62.165,34.329 74.917 C 36.913 84.406,46.447 89.864,55.546 87.065 C 57.918 86.335,57.449 86.131,60.346 89.158 C 63.458 92.411,63.435 92.328,61.500 93.283 C 55.232 96.376,46.445 96.398,40.083 93.335 C 17.785 82.599,23.031 49.213,47.583 45.604 C 49.189 45.368,54.460 45.642,56.167 46.050 M84.445 46.061 C 102.814 50.697,109.840 72.286,97.763 86.982 C 90.913 95.316,78.351 98.021,68.250 93.338 C 61.860 90.375,56.326 83.559,54.729 76.682 C 54.402 75.277,54.219 75.339,58.717 75.336 L 62.517 75.333 62.766 75.958 C 65.152 81.941,68.764 85.454,74.218 87.096 C 87.784 91.181,99.967 77.241,94.523 63.861 C 89.601 51.767,72.821 49.659,65.392 60.202 C 64.281 61.778,64.630 61.688,59.833 61.630 L 55.917 61.583 55.948 61.123 C 56.026 59.999,58.262 56.261,60.234 53.961 C 66.020 47.211,76.042 43.940,84.445 46.061 M156.667 47.509 C 155.010 47.715,153.017 48.156,152.500 48.431 C 152.271 48.553,151.417 48.931,150.604 49.272 C 149.790 49.613,148.892 50.103,148.608 50.362 C 148.324 50.621,148.014 50.833,147.918 50.833 C 147.659 50.833,145.469 52.803,144.767 53.667 C 144.432 54.079,143.997 54.604,143.802 54.833 C 142.176 56.740,140.097 64.108,140.724 65.742 C 140.811 65.969,141.575 66.000,146.989 66.000 C 154.031 66.000,153.375 66.165,153.573 64.346 C 153.693 63.248,154.066 62.324,154.769 61.386 C 154.988 61.094,155.167 60.791,155.167 60.713 C 155.167 60.428,157.448 59.346,158.338 59.209 C 161.971 58.650,164.866 61.344,165.122 65.523 C 165.256 67.695,165.712 67.558,157.841 67.694 C 151.428 67.804,148.543 68.085,148.180 68.635 C 148.127 68.716,147.879 68.832,147.630 68.893 C 146.821 69.091,144.765 70.103,144.167 70.598 C 142.579 71.910,141.066 73.630,140.583 74.672 C 140.308 75.265,140.023 75.795,139.948 75.849 C 139.247 76.365,138.904 81.683,139.436 83.801 C 139.768 85.127,141.006 87.669,141.668 88.384 C 141.939 88.677,142.306 89.109,142.484 89.344 C 142.662 89.578,143.133 89.991,143.529 90.260 C 143.926 90.530,144.348 90.881,144.468 91.042 C 144.588 91.202,144.788 91.333,144.912 91.333 C 145.037 91.333,145.164 91.395,145.194 91.471 C 145.242 91.590,146.071 91.985,148.268 92.936 C 148.553 93.059,149.153 93.235,149.602 93.327 C 150.050 93.419,150.642 93.541,150.917 93.599 C 152.918 94.017,158.057 93.798,159.833 93.219 C 161.892 92.547,164.833 91.137,164.833 90.822 C 164.833 90.737,164.908 90.667,165.000 90.667 C 165.092 90.667,165.167 91.080,165.167 91.585 L 165.167 92.504 171.458 92.460 L 177.750 92.417 177.793 79.275 C 177.835 66.258,177.751 63.409,177.249 60.790 C 177.183 60.445,177.061 60.121,176.978 60.070 C 176.896 60.019,176.867 59.913,176.915 59.836 C 176.963 59.758,176.915 59.482,176.809 59.222 C 176.703 58.963,176.596 58.654,176.572 58.536 C 176.529 58.327,175.816 56.913,175.138 55.691 C 173.755 53.201,170.085 50.066,167.402 49.084 C 166.769 48.852,166.058 48.555,165.824 48.424 C 164.546 47.711,159.278 47.184,156.667 47.509 M206.333 47.608 C 204.256 47.920,203.596 48.084,202.417 48.584 C 202.142 48.701,201.744 48.848,201.533 48.912 C 200.919 49.098,199.114 50.162,198.750 50.553 L 198.417 50.911 198.367 49.872 L 198.317 48.833 191.909 48.833 L 185.500 48.833 185.500 81.585 L 185.500 114.337 191.875 114.294 L 198.250 114.250 198.293 102.375 C 198.316 95.844,198.380 90.500,198.435 90.500 C 198.490 90.500,198.767 90.695,199.051 90.934 C 199.736 91.511,202.580 92.806,203.769 93.084 C 203.942 93.124,204.383 93.240,204.750 93.341 C 206.674 93.874,212.232 93.631,213.750 92.949 C 215.704 92.071,217.044 91.359,217.833 90.779 C 218.760 90.099,221.667 87.227,221.667 86.992 C 221.667 86.922,221.925 86.556,222.240 86.179 C 222.555 85.801,222.865 85.325,222.929 85.121 C 222.993 84.917,223.097 84.712,223.161 84.667 C 223.876 84.153,225.754 79.030,226.231 76.294 C 226.275 76.044,226.353 75.770,226.404 75.687 C 226.576 75.408,226.726 72.946,226.714 70.583 C 226.699 67.449,226.575 66.210,226.079 64.250 C 225.940 63.700,225.799 63.100,225.767 62.917 C 225.667 62.348,225.459 61.591,225.355 61.417 C 225.300 61.325,225.245 61.194,225.232 61.125 C 225.219 61.056,225.193 60.981,225.175 60.958 C 225.157 60.935,225.110 60.746,225.071 60.537 C 225.032 60.328,224.876 59.878,224.724 59.537 C 224.571 59.196,224.436 58.879,224.423 58.833 C 224.327 58.490,222.671 55.494,222.489 55.333 C 222.437 55.288,222.143 54.875,221.835 54.417 C 220.621 52.609,217.947 50.200,216.204 49.343 C 213.881 48.201,213.245 47.957,212.036 47.741 C 210.872 47.533,207.373 47.452,206.333 47.608 M303.167 47.612 C 300.391 47.891,296.639 49.280,295.269 50.535 L 294.750 51.011 294.667 49.881 L 294.583 48.750 288.167 48.750 L 281.750 48.750 281.708 70.618 L 281.665 92.485 288.064 92.496 C 293.870 92.506,294.471 92.482,294.568 92.231 C 294.626 92.079,294.669 86.014,294.663 78.753 C 294.651 63.698,294.573 64.548,296.116 62.832 C 297.741 61.025,302.138 59.772,303.784 60.647 C 303.949 60.734,304.646 61.063,305.333 61.378 C 306.876 62.085,307.861 62.997,308.459 64.273 L 308.917 65.250 309.005 78.833 C 309.053 86.304,309.110 92.435,309.130 92.458 C 309.150 92.481,312.020 92.500,315.508 92.500 L 321.850 92.500 321.783 78.292 C 321.747 70.477,321.671 63.821,321.616 63.500 C 321.560 63.179,321.480 62.692,321.438 62.417 C 321.087 60.121,320.781 59.077,319.979 57.440 C 318.977 55.395,318.833 55.146,318.184 54.333 C 317.854 53.921,317.471 53.433,317.334 53.250 C 316.259 51.819,313.589 49.764,312.030 49.167 C 311.509 48.968,310.896 48.708,310.667 48.591 C 310.153 48.327,309.249 48.039,308.583 47.927 C 306.165 47.523,304.829 47.445,303.167 47.612 M207.818 60.830 C 209.333 61.157,211.654 62.525,211.664 63.096 C 211.665 63.195,211.843 63.441,212.059 63.644 C 212.274 63.846,212.545 64.328,212.659 64.714 C 212.774 65.101,212.929 65.492,213.004 65.585 C 213.794 66.558,213.780 73.658,212.984 75.600 C 212.377 77.081,212.123 77.507,211.328 78.375 C 209.115 80.791,203.659 81.214,201.435 79.142 C 201.253 78.972,201.043 78.833,200.969 78.833 C 200.894 78.833,200.833 78.740,200.833 78.625 C 200.832 78.510,200.607 78.177,200.333 77.884 C 200.058 77.591,199.833 77.272,199.833 77.176 C 199.833 77.079,199.771 77.000,199.694 77.000 C 199.618 77.000,199.550 76.906,199.542 76.792 C 199.535 76.677,199.368 76.058,199.171 75.417 C 198.801 74.212,198.730 73.835,198.604 72.417 C 198.022 65.884,200.149 61.513,204.209 60.896 C 204.598 60.837,205.029 60.723,205.167 60.642 C 205.454 60.473,206.516 60.548,207.818 60.830 M49.931 62.265 C 50.122 62.316,50.439 62.671,50.635 63.054 C 50.946 63.661,51.542 64.758,52.323 66.163 C 52.674 66.795,52.808 66.256,52.822 64.143 C 52.835 62.087,52.766 62.165,54.555 62.169 C 56.315 62.173,56.177 61.653,56.127 68.095 L 56.083 73.750 54.751 73.799 C 52.903 73.868,52.796 73.821,52.192 72.690 C 50.223 68.995,50.196 68.986,50.125 72.000 L 50.083 73.750 48.551 73.798 C 47.146 73.842,47.003 73.817,46.834 73.501 C 46.524 72.923,46.679 62.532,47.000 62.330 C 47.270 62.159,49.364 62.112,49.931 62.265 M71.097 62.511 C 71.370 62.738,71.425 64.596,71.171 65.000 C 71.047 65.195,70.555 65.262,68.922 65.305 C 67.034 65.355,66.813 65.393,66.652 65.693 C 66.315 66.324,66.555 66.449,68.345 66.576 C 70.623 66.738,70.500 66.651,70.500 68.091 C 70.500 69.556,70.616 69.469,68.478 69.606 C 66.417 69.738,66.506 69.637,66.503 71.865 C 66.500 73.911,66.543 73.851,65.005 73.961 C 63.049 74.101,63.167 74.420,63.167 68.989 C 63.167 63.335,63.248 63.036,64.947 62.395 C 65.737 62.098,70.712 62.192,71.097 62.511 M86.466 62.309 C 86.620 62.407,86.668 62.822,86.633 63.764 L 86.583 65.083 85.250 65.167 L 83.917 65.250 83.833 69.500 L 83.750 73.750 82.653 73.898 C 81.812 74.011,81.443 73.991,81.070 73.812 L 80.583 73.579 80.500 69.415 L 80.417 65.250 79.167 65.167 L 77.917 65.083 77.867 63.764 C 77.804 62.069,77.522 62.172,82.250 62.172 C 84.450 62.172,86.347 62.233,86.466 62.309 M74.968 75.865 C 75.135 77.306,72.007 84.539,71.060 84.902 C 70.644 85.062,70.299 84.775,67.978 82.331 C 65.314 79.527,65.313 79.525,65.919 78.330 C 66.171 77.832,66.519 77.014,66.691 76.512 C 67.114 75.283,66.931 75.330,71.167 75.376 L 74.917 75.417 74.968 75.865 M165.162 75.866 C 165.143 77.277,164.366 80.705,163.999 81.000 C 163.941 81.046,163.641 81.458,163.330 81.917 C 162.582 83.022,162.540 83.060,161.311 83.733 C 157.819 85.648,152.106 84.424,150.941 81.512 C 150.652 80.790,150.592 78.667,150.860 78.667 C 150.925 78.667,151.026 78.515,151.084 78.330 C 151.718 76.334,154.317 75.561,160.542 75.516 L 165.167 75.483 165.162 75.866 " stroke="none" fill="#3b5b9b" fill-rule="evenodd"></path><path id="path2" d="M48.127 45.785 C 48.334 45.824,48.634 45.823,48.794 45.781 C 48.953 45.739,48.783 45.707,48.417 45.709 C 48.050 45.711,47.920 45.745,48.127 45.785 M52.794 45.785 C 53.001 45.824,53.301 45.823,53.460 45.781 C 53.620 45.739,53.450 45.707,53.083 45.709 C 52.717 45.711,52.586 45.745,52.794 45.785 M76.042 45.782 C 76.202 45.823,76.465 45.823,76.625 45.782 C 76.785 45.740,76.654 45.705,76.333 45.705 C 76.012 45.705,75.881 45.740,76.042 45.782 M81.042 45.782 C 81.202 45.823,81.465 45.823,81.625 45.782 C 81.785 45.740,81.654 45.705,81.333 45.705 C 81.012 45.705,80.881 45.740,81.042 45.782 M56.917 52.500 C 56.774 52.775,56.696 53.000,56.741 53.000 C 56.787 53.000,56.941 52.775,57.083 52.500 C 57.226 52.225,57.304 52.000,57.259 52.000 C 57.213 52.000,57.059 52.225,56.917 52.500 M32.991 53.125 L 32.417 53.750 33.042 53.176 C 33.623 52.641,33.743 52.500,33.616 52.500 C 33.588 52.500,33.307 52.781,32.991 53.125 M49.042 53.282 C 49.202 53.323,49.465 53.323,49.625 53.282 C 49.785 53.240,49.654 53.205,49.333 53.205 C 49.012 53.205,48.881 53.240,49.042 53.282 M51.875 53.282 C 52.035 53.323,52.298 53.323,52.458 53.282 C 52.619 53.240,52.487 53.205,52.167 53.205 C 51.846 53.205,51.715 53.240,51.875 53.282 M56.242 53.650 C 56.155 53.733,55.933 53.837,55.750 53.881 C 55.434 53.957,55.435 53.962,55.771 53.981 C 55.966 53.991,56.219 53.887,56.333 53.750 C 56.560 53.477,56.496 53.409,56.242 53.650 M66.744 58.208 L 65.917 59.083 66.792 58.256 C 67.273 57.801,67.667 57.408,67.667 57.381 C 67.667 57.257,67.512 57.395,66.744 58.208 M90.993 58.208 C 91.684 58.944,91.833 59.077,91.833 58.951 C 91.833 58.925,91.477 58.568,91.042 58.160 L 90.250 57.417 90.993 58.208 M69.708 62.448 C 69.869 62.490,70.131 62.490,70.292 62.448 C 70.452 62.406,70.321 62.372,70.000 62.372 C 69.679 62.372,69.548 62.406,69.708 62.448 M46.908 68.000 C 46.908 70.979,46.930 72.198,46.958 70.708 C 46.986 69.219,46.986 66.781,46.958 65.292 C 46.930 63.802,46.908 65.021,46.908 68.000 M68.048 65.123 C 68.578 65.157,69.403 65.156,69.881 65.123 C 70.359 65.089,69.925 65.062,68.917 65.062 C 67.908 65.063,67.517 65.090,68.048 65.123 M80.701 69.448 C 80.682 71.666,80.723 73.515,80.792 73.558 C 80.860 73.601,80.897 72.424,80.874 70.943 C 80.794 65.911,80.735 65.407,80.701 69.448 M52.858 66.542 C 52.845 66.794,52.754 67.000,52.657 67.000 C 52.560 67.000,52.531 67.082,52.592 67.181 C 52.786 67.494,53.031 67.075,52.955 66.562 L 52.883 66.083 52.858 66.542 M67.708 66.786 C 67.960 66.824,68.373 66.824,68.625 66.786 C 68.877 66.748,68.671 66.717,68.167 66.717 C 67.662 66.717,67.456 66.748,67.708 66.786 M70.381 68.083 C 70.382 68.542,70.415 68.709,70.453 68.456 C 70.491 68.203,70.490 67.828,70.451 67.623 C 70.411 67.418,70.380 67.625,70.381 68.083 M103.389 68.500 C 103.389 69.188,103.419 69.469,103.455 69.125 C 103.491 68.781,103.491 68.219,103.455 67.875 C 103.419 67.531,103.389 67.813,103.389 68.500 M33.548 69.583 C 33.549 70.042,33.581 70.209,33.620 69.956 C 33.658 69.703,33.657 69.328,33.617 69.123 C 33.578 68.918,33.546 69.125,33.548 69.583 M50.000 69.173 C 50.000 69.456,50.039 69.477,50.233 69.298 C 50.472 69.077,50.433 68.833,50.157 68.833 C 50.071 68.833,50.000 68.986,50.000 69.173 M26.062 70.667 C 26.062 71.629,26.089 72.023,26.123 71.542 C 26.157 71.060,26.157 70.273,26.123 69.792 C 26.089 69.310,26.062 69.704,26.062 70.667 M96.061 70.583 C 96.061 71.500,96.089 71.854,96.123 71.369 C 96.157 70.885,96.156 70.135,96.122 69.703 C 96.088 69.270,96.060 69.667,96.061 70.583 M67.875 69.455 C 68.219 69.491,68.781 69.491,69.125 69.455 C 69.469 69.419,69.188 69.389,68.500 69.389 C 67.813 69.389,67.531 69.419,67.875 69.455 M33.542 71.750 C 33.544 72.117,33.578 72.247,33.618 72.040 C 33.658 71.832,33.656 71.532,33.615 71.373 C 33.573 71.214,33.540 71.383,33.542 71.750 M103.387 72.667 C 103.387 73.262,103.417 73.506,103.454 73.208 C 103.491 72.910,103.491 72.423,103.454 72.125 C 103.417 71.827,103.387 72.071,103.387 72.667 M48.128 73.787 C 48.428 73.825,48.878 73.824,49.128 73.786 C 49.378 73.748,49.133 73.717,48.583 73.718 C 48.033 73.719,47.828 73.750,48.128 73.787 M53.961 73.787 C 54.261 73.825,54.711 73.824,54.961 73.786 C 55.212 73.748,54.967 73.717,54.417 73.718 C 53.867 73.719,53.662 73.750,53.961 73.787 M64.121 73.787 C 64.417 73.824,64.942 73.824,65.288 73.788 C 65.634 73.752,65.392 73.722,64.750 73.721 C 64.108 73.721,63.825 73.750,64.121 73.787 M81.625 73.787 C 81.923 73.824,82.410 73.824,82.708 73.787 C 83.006 73.750,82.762 73.720,82.167 73.720 C 81.571 73.720,81.327 73.750,81.625 73.787 M65.833 79.879 C 65.833 79.904,66.415 80.486,67.125 81.171 L 68.417 82.417 67.171 81.125 C 66.014 79.925,65.833 79.757,65.833 79.879 M101.034 81.420 C 100.834 81.831,100.706 82.167,100.749 82.167 C 100.862 82.167,101.535 80.813,101.460 80.738 C 101.425 80.703,101.233 81.010,101.034 81.420 M38.583 83.000 C 38.941 83.367,39.272 83.667,39.318 83.667 C 39.363 83.667,39.108 83.367,38.750 83.000 C 38.392 82.633,38.062 82.333,38.016 82.333 C 37.970 82.333,38.225 82.633,38.583 83.000 M69.750 84.000 C 70.108 84.367,70.438 84.667,70.484 84.667 C 70.530 84.667,70.275 84.367,69.917 84.000 C 69.559 83.633,69.228 83.333,69.182 83.333 C 69.137 83.333,69.392 83.633,69.750 84.000 M57.517 86.708 C 57.558 86.731,58.001 87.125,58.504 87.583 L 59.417 88.417 58.590 87.542 C 58.135 87.060,57.691 86.667,57.603 86.667 C 57.516 86.667,57.477 86.685,57.517 86.708 M97.073 87.375 L 96.583 87.917 97.125 87.427 C 97.423 87.158,97.667 86.914,97.667 86.885 C 97.667 86.757,97.529 86.870,97.073 87.375 M33.250 88.333 C 33.794 88.883,34.277 89.333,34.323 89.333 C 34.369 89.333,33.961 88.883,33.417 88.333 C 32.872 87.783,32.390 87.333,32.344 87.333 C 32.298 87.333,32.706 87.783,33.250 88.333 M61.326 88.208 C 62.017 88.944,62.167 89.077,62.167 88.951 C 62.167 88.925,61.810 88.568,61.375 88.160 L 60.583 87.417 61.326 88.208 M48.794 87.951 C 49.001 87.991,49.301 87.990,49.460 87.948 C 49.620 87.906,49.450 87.874,49.083 87.875 C 48.717 87.877,48.586 87.911,48.794 87.951 M52.042 87.948 C 52.202 87.990,52.465 87.990,52.625 87.948 C 52.785 87.906,52.654 87.872,52.333 87.872 C 52.012 87.872,51.881 87.906,52.042 87.948 M77.292 87.951 C 77.498 87.991,77.835 87.991,78.042 87.951 C 78.248 87.911,78.079 87.879,77.667 87.879 C 77.254 87.879,77.085 87.911,77.292 87.951 M79.711 87.953 C 79.964 87.991,80.339 87.990,80.544 87.951 C 80.749 87.911,80.542 87.880,80.083 87.881 C 79.625 87.882,79.457 87.915,79.711 87.953 M95.073 89.375 L 94.583 89.917 95.125 89.427 C 95.423 89.158,95.667 88.914,95.667 88.885 C 95.667 88.757,95.529 88.870,95.073 89.375 M61.500 90.750 C 62.091 91.346,62.611 91.833,62.657 91.833 C 62.703 91.833,62.257 91.346,61.667 90.750 C 61.076 90.154,60.555 89.667,60.510 89.667 C 60.464 89.667,60.909 90.154,61.500 90.750 M61.333 93.083 C 61.104 93.214,60.992 93.322,61.083 93.322 C 61.175 93.322,61.438 93.214,61.667 93.083 C 61.896 92.952,62.008 92.845,61.917 92.845 C 61.825 92.845,61.563 92.952,61.333 93.083 " stroke="none" fill="#8195bd" fill-rule="evenodd"></path><path id="path3" d="M47.848 45.841 C 27.809 48.361,19.087 72.528,32.766 87.632 C 39.796 95.393,52.068 97.700,61.484 93.030 C 62.995 92.281,63.006 92.323,60.583 89.752 C 59.402 88.500,58.228 87.301,57.974 87.087 L 57.512 86.698 56.029 87.175 C 46.024 90.392,35.442 83.883,33.754 73.474 C 31.836 61.645,42.162 51.302,53.750 53.445 C 56.224 53.903,56.130 53.928,56.878 52.583 C 57.234 51.942,58.011 50.566,58.604 49.526 C 59.854 47.335,59.854 47.333,58.186 46.831 C 55.027 45.882,50.767 45.474,47.848 45.841 M76.333 45.769 C 67.763 46.828,60.492 51.955,56.833 59.520 C 55.794 61.670,55.507 61.500,60.158 61.500 L 64.150 61.500 65.303 59.958 C 75.724 46.026,98.188 55.316,96.031 72.667 C 93.792 90.677,69.135 93.579,62.744 76.583 L 62.368 75.583 58.642 75.583 L 54.917 75.583 54.941 76.127 C 55.017 77.791,57.117 82.636,58.757 84.935 C 70.526 101.427,95.778 97.763,102.187 78.634 C 107.901 61.578,93.770 43.614,76.333 45.769 M53.083 46.006 C 55.834 46.316,59.103 47.141,59.266 47.565 C 59.311 47.682,58.981 48.409,58.533 49.181 C 58.085 49.952,57.367 51.237,56.937 52.035 C 55.968 53.836,56.168 53.743,54.155 53.339 C 44.671 51.438,35.398 57.759,33.600 67.350 C 31.588 78.090,39.845 88.175,50.667 88.196 C 53.034 88.201,53.660 88.106,56.072 87.378 L 57.562 86.929 59.950 89.423 C 62.649 92.241,62.644 92.225,61.167 92.945 C 48.218 99.264,32.206 92.344,27.602 78.440 C 22.008 61.543,35.754 44.047,53.083 46.006 M81.465 46.010 C 94.121 47.389,103.083 57.576,103.083 70.583 C 103.083 92.610,77.211 103.567,61.743 88.091 C 58.520 84.867,55.167 78.777,55.167 76.148 L 55.167 75.660 58.693 75.705 L 62.218 75.750 62.502 76.583 C 65.491 85.361,75.646 90.333,84.417 87.312 C 95.324 83.555,99.764 70.468,93.401 60.828 C 86.704 50.681,72.273 50.316,64.903 60.108 L 63.981 61.333 60.157 61.333 C 58.054 61.333,56.333 61.268,56.333 61.187 C 56.333 61.107,56.770 60.180,57.304 59.127 C 61.845 50.175,71.514 44.925,81.465 46.010 M47.076 62.543 C 47.031 62.658,47.015 65.190,47.039 68.168 L 47.083 73.583 48.500 73.583 L 49.917 73.583 49.963 71.196 C 50.020 68.274,50.031 68.274,51.602 71.095 C 53.150 73.876,52.932 73.689,54.554 73.632 L 55.917 73.583 55.961 68.045 L 56.004 62.507 55.622 62.412 C 55.412 62.359,54.755 62.338,54.162 62.366 L 53.083 62.417 53.000 64.833 C 52.910 67.448,52.818 67.643,52.214 66.500 C 50.893 63.999,50.266 62.882,50.039 62.625 C 49.718 62.261,47.211 62.191,47.076 62.543 M65.083 62.522 C 63.527 63.102,63.332 63.845,63.336 69.217 C 63.339 73.982,63.236 73.696,64.931 73.633 L 66.250 73.583 66.333 71.585 L 66.417 69.586 66.917 69.479 C 67.192 69.421,68.027 69.364,68.774 69.353 C 70.309 69.331,70.333 69.309,70.333 68.007 C 70.333 66.937,70.136 66.805,68.640 66.876 L 67.417 66.934 68.691 66.967 C 70.085 67.003,70.167 67.065,70.167 68.083 C 70.167 69.123,70.104 69.165,68.524 69.183 C 66.137 69.211,66.264 69.090,66.167 71.424 L 66.083 73.417 64.875 73.466 L 63.667 73.515 63.667 68.919 C 63.667 63.591,63.713 63.356,64.869 62.832 C 65.622 62.490,68.080 62.396,69.917 62.640 L 70.750 62.750 70.800 63.792 L 70.849 64.833 68.966 64.836 C 66.575 64.839,66.250 64.979,66.250 66.005 C 66.250 66.740,66.258 66.750,66.833 66.779 C 67.401 66.807,67.403 66.805,66.917 66.694 C 66.479 66.594,66.417 66.508,66.417 66.003 C 66.417 65.169,66.857 65.005,69.107 65.002 C 71.184 65.000,71.167 65.010,71.167 63.768 C 71.167 62.513,71.072 62.470,68.155 62.399 C 66.516 62.359,65.402 62.403,65.083 62.522 M78.071 62.556 C 78.022 62.682,78.005 63.265,78.033 63.851 L 78.083 64.917 79.375 64.965 C 80.085 64.992,80.681 65.030,80.698 65.049 C 80.716 65.068,80.772 66.996,80.823 69.333 L 80.917 73.583 82.250 73.583 L 83.583 73.583 83.667 69.333 L 83.750 65.083 85.083 65.000 L 86.417 64.917 86.417 63.667 L 86.417 62.417 82.288 62.372 C 78.910 62.336,78.142 62.369,78.071 62.556 M51.140 64.935 C 53.116 68.576,53.167 68.586,53.167 65.337 C 53.167 62.374,53.107 62.500,54.510 62.500 L 55.652 62.500 55.749 63.042 C 55.803 63.340,55.825 65.796,55.798 68.500 L 55.750 73.417 54.468 73.465 L 53.187 73.514 52.218 71.750 C 49.992 67.694,49.941 67.676,49.833 70.917 L 49.750 73.417 48.500 73.417 L 47.250 73.417 47.203 68.333 C 47.145 61.968,47.023 62.474,48.603 62.535 L 49.864 62.583 51.140 64.935 M86.299 63.701 L 86.348 64.820 84.966 64.868 L 83.583 64.917 83.539 69.208 L 83.494 73.500 82.247 73.500 L 81.000 73.500 81.000 69.367 C 81.000 64.580,81.090 64.833,79.383 64.833 L 78.167 64.833 78.167 63.778 C 78.167 62.394,77.850 62.488,82.322 62.539 L 86.250 62.583 86.299 63.701 M226.717 71.000 C 226.717 71.504,226.748 71.710,226.786 71.458 C 226.824 71.206,226.824 70.794,226.786 70.542 C 226.748 70.290,226.717 70.496,226.717 71.000 M67.284 75.622 C 67.243 75.692,67.115 76.050,66.999 76.417 C 66.883 76.783,66.573 77.512,66.310 78.037 C 66.048 78.561,65.833 79.151,65.833 79.346 C 65.833 79.780,70.411 84.667,70.817 84.667 C 71.609 84.667,74.544 78.224,74.708 76.125 L 74.750 75.583 71.053 75.539 C 69.020 75.514,67.324 75.551,67.284 75.622 M74.500 76.081 C 74.500 77.571,71.664 84.093,70.880 84.405 C 70.664 84.491,66.119 79.826,66.032 79.429 C 66.004 79.300,66.200 78.757,66.468 78.222 C 66.735 77.688,67.049 76.950,67.166 76.583 C 67.282 76.217,67.409 75.860,67.448 75.792 C 67.488 75.723,69.090 75.667,71.010 75.667 L 74.500 75.667 74.500 76.081 M383.961 92.954 C 384.261 92.991,384.711 92.990,384.961 92.952 C 385.212 92.914,384.967 92.884,384.417 92.885 C 383.867 92.886,383.662 92.917,383.961 92.954 " stroke="none" fill="#9baccc" fill-rule="evenodd"></path><path id="path4" d="M49.383 45.624 C 50.190 45.655,51.465 45.655,52.217 45.624 C 52.968 45.593,52.308 45.568,50.750 45.568 C 49.192 45.568,48.577 45.594,49.383 45.624 M77.375 45.624 C 78.177 45.655,79.490 45.655,80.292 45.624 C 81.094 45.594,80.438 45.569,78.833 45.569 C 77.229 45.569,76.573 45.594,77.375 45.624 M46.333 45.833 C 45.748 46.021,46.360 46.027,47.250 45.843 L 47.917 45.705 47.333 45.702 C 47.012 45.701,46.563 45.760,46.333 45.833 M54.250 45.843 C 55.094 46.018,55.776 46.010,55.083 45.833 C 54.808 45.763,54.358 45.706,54.083 45.706 C 53.663 45.705,53.689 45.727,54.250 45.843 M74.750 45.753 C 74.658 45.785,74.133 45.903,73.583 46.013 C 73.033 46.124,72.658 46.240,72.750 46.271 C 72.842 46.302,73.592 46.184,74.417 46.009 C 75.242 45.834,75.692 45.691,75.417 45.692 C 75.142 45.692,74.842 45.720,74.750 45.753 M82.917 45.918 C 84.968 46.307,85.279 46.332,84.083 46.009 C 83.442 45.836,82.654 45.695,82.333 45.695 C 81.955 45.696,82.160 45.775,82.917 45.918 M44.833 46.167 C 44.503 46.272,44.486 46.300,44.750 46.300 C 44.933 46.300,45.271 46.240,45.500 46.167 C 45.830 46.061,45.847 46.033,45.583 46.033 C 45.400 46.033,45.063 46.093,44.833 46.167 M56.732 46.351 C 57.364 46.531,57.962 46.652,58.060 46.619 C 58.253 46.554,56.158 45.992,55.799 46.012 C 55.680 46.018,56.100 46.171,56.732 46.351 M43.583 46.500 C 43.373 46.590,43.342 46.643,43.500 46.643 C 43.637 46.643,43.900 46.579,44.083 46.500 C 44.293 46.410,44.324 46.357,44.167 46.357 C 44.029 46.357,43.767 46.421,43.583 46.500 M71.750 46.500 C 71.540 46.590,71.509 46.643,71.667 46.643 C 71.804 46.643,72.067 46.579,72.250 46.500 C 72.460 46.410,72.491 46.357,72.333 46.357 C 72.196 46.357,71.933 46.421,71.750 46.500 M85.500 46.500 C 85.638 46.589,85.900 46.657,86.083 46.652 L 86.417 46.643 86.083 46.500 C 85.585 46.286,85.169 46.286,85.500 46.500 M41.833 47.071 C 40.675 47.546,38.500 48.644,38.500 48.754 C 38.500 48.800,38.969 48.600,39.542 48.309 C 40.115 48.018,41.183 47.533,41.917 47.231 C 42.650 46.928,43.137 46.685,43.000 46.689 C 42.862 46.693,42.337 46.865,41.833 47.071 M58.958 47.005 C 59.872 47.411,59.863 47.479,58.606 49.705 C 58.023 50.738,57.267 52.094,56.926 52.719 C 56.584 53.343,56.143 53.920,55.944 54.000 C 55.656 54.116,55.642 54.148,55.877 54.156 C 56.254 54.170,56.697 53.509,58.492 50.254 C 60.098 47.343,60.104 47.311,59.150 46.930 C 58.239 46.565,58.095 46.621,58.958 47.005 M69.926 47.092 C 64.048 49.532,59.552 53.642,56.763 59.123 C 56.332 59.969,55.966 60.869,55.948 61.123 L 55.917 61.583 60.083 61.589 L 64.250 61.595 60.180 61.506 C 57.371 61.444,56.091 61.358,56.048 61.228 C 55.931 60.875,57.991 57.090,59.121 55.583 C 61.919 51.850,66.003 48.767,70.381 47.082 C 70.951 46.862,71.304 46.682,71.167 46.682 C 71.029 46.681,70.471 46.866,69.926 47.092 M87.583 47.149 C 88.225 47.404,89.294 47.888,89.958 48.225 C 90.623 48.562,91.167 48.800,91.167 48.754 C 91.167 48.531,87.019 46.651,86.583 46.676 C 86.492 46.682,86.942 46.895,87.583 47.149 M36.937 49.674 C 32.519 52.629,27.914 58.756,27.078 62.792 C 27.026 63.044,27.247 62.592,27.570 61.787 C 29.658 56.587,32.687 52.746,37.013 49.813 C 38.325 48.924,38.443 48.833,38.292 48.833 C 38.238 48.833,37.629 49.212,36.937 49.674 M91.557 49.032 C 98.465 53.930,101.834 58.878,103.258 66.218 C 103.466 67.289,103.481 67.319,103.403 66.500 C 102.809 60.311,97.462 52.235,91.948 49.199 C 91.564 48.987,91.388 48.912,91.557 49.032 M50.295 53.287 C 50.594 53.325,51.044 53.324,51.295 53.286 C 51.545 53.248,51.300 53.217,50.750 53.218 C 50.200 53.219,49.995 53.250,50.295 53.287 M78.213 53.289 C 78.652 53.324,79.327 53.323,79.713 53.288 C 80.100 53.254,79.742 53.225,78.917 53.226 C 78.092 53.226,77.775 53.255,78.213 53.289 M48.625 53.451 C 48.831 53.491,49.169 53.491,49.375 53.451 C 49.581 53.411,49.413 53.379,49.000 53.379 C 48.587 53.379,48.419 53.411,48.625 53.451 M52.294 53.451 C 52.501 53.491,52.801 53.490,52.960 53.448 C 53.120 53.406,52.950 53.374,52.583 53.375 C 52.217 53.377,52.086 53.411,52.294 53.451 M76.542 53.448 C 76.702 53.490,76.965 53.490,77.125 53.448 C 77.285 53.406,77.154 53.372,76.833 53.372 C 76.512 53.372,76.381 53.406,76.542 53.448 M80.708 53.448 C 80.869 53.490,81.131 53.490,81.292 53.448 C 81.452 53.406,81.321 53.372,81.000 53.372 C 80.679 53.372,80.548 53.406,80.708 53.448 M46.917 53.667 C 46.471 53.780,46.462 53.794,46.833 53.794 C 47.063 53.794,47.475 53.737,47.750 53.667 C 48.196 53.553,48.205 53.539,47.833 53.539 C 47.604 53.539,47.192 53.597,46.917 53.667 M75.000 53.667 C 74.440 53.846,75.045 53.846,75.750 53.667 C 76.199 53.552,76.208 53.539,75.833 53.536 C 75.604 53.535,75.229 53.593,75.000 53.667 M82.083 53.667 C 82.788 53.846,83.394 53.846,82.833 53.667 C 82.604 53.593,82.229 53.535,82.000 53.536 C 81.626 53.539,81.634 53.552,82.083 53.667 M73.750 54.000 C 73.540 54.090,73.509 54.143,73.667 54.143 C 73.804 54.143,74.067 54.079,74.250 54.000 C 74.460 53.910,74.491 53.857,74.333 53.857 C 74.196 53.857,73.933 53.921,73.750 54.000 M44.417 54.491 C 44.050 54.664,43.797 54.812,43.855 54.820 C 44.016 54.841,45.167 54.339,45.167 54.248 C 45.167 54.136,45.166 54.136,44.417 54.491 M71.090 55.153 C 69.527 55.961,67.846 57.202,66.750 58.353 C 66.040 59.100,66.098 59.065,67.148 58.112 C 68.565 56.826,70.223 55.684,71.566 55.070 C 72.382 54.696,72.678 54.500,72.426 54.500 C 72.385 54.500,71.784 54.794,71.090 55.153 M85.333 54.557 C 85.333 54.584,85.965 54.926,86.737 55.317 C 99.251 61.662,98.606 80.987,85.701 86.350 C 85.220 86.551,84.854 86.743,84.889 86.778 C 84.996 86.885,86.452 86.210,87.642 85.503 C 97.928 79.392,98.922 64.439,89.539 56.977 C 88.130 55.856,85.333 54.247,85.333 54.557 M42.488 55.427 C 31.225 61.437,30.638 78.052,41.441 85.111 C 42.757 85.971,44.831 87.005,45.224 86.996 C 45.330 86.993,44.839 86.738,44.132 86.428 C 31.168 80.738,30.295 61.754,42.708 55.480 C 43.235 55.213,43.667 54.959,43.667 54.914 C 43.667 54.797,43.682 54.790,42.488 55.427 M65.381 59.958 C 64.779 60.742,64.207 61.671,64.535 61.333 C 64.891 60.966,66.042 59.333,65.945 59.333 C 65.899 59.333,65.645 59.615,65.381 59.958 M47.792 62.289 C 48.181 62.324,48.819 62.324,49.208 62.289 C 49.598 62.254,49.279 62.225,48.500 62.225 C 47.721 62.225,47.402 62.254,47.792 62.289 M54.500 62.323 L 55.917 62.417 55.961 68.030 C 56.004 73.551,55.999 73.644,55.666 73.719 C 55.381 73.782,55.387 73.791,55.706 73.772 L 56.083 73.750 56.127 68.095 C 56.178 61.615,56.336 62.159,54.417 62.200 L 53.083 62.229 54.500 62.323 M66.465 62.290 C 67.041 62.323,67.941 62.323,68.465 62.290 C 68.988 62.257,68.517 62.230,67.417 62.230 C 66.317 62.231,65.888 62.258,66.465 62.290 M82.250 62.329 L 86.417 62.417 86.465 63.708 L 86.514 65.000 85.290 65.000 C 83.575 65.000,83.667 64.746,83.667 69.521 C 83.667 73.062,83.631 73.653,83.413 73.721 C 83.236 73.776,83.249 73.791,83.455 73.773 C 83.726 73.748,83.757 73.406,83.833 69.498 L 83.917 65.250 85.250 65.167 L 86.583 65.083 86.633 63.764 C 86.696 62.065,86.983 62.166,82.167 62.206 L 78.083 62.241 82.250 62.329 M50.960 64.005 C 51.465 64.924,51.906 65.650,51.939 65.617 C 52.021 65.534,50.275 62.342,50.145 62.337 C 50.087 62.335,50.454 63.086,50.960 64.005 M52.865 64.000 C 52.845 64.962,52.781 65.928,52.723 66.146 L 52.617 66.542 52.303 66.146 C 51.993 65.754,51.992 65.757,52.275 66.375 C 52.810 67.542,53.072 66.538,52.961 63.750 L 52.902 62.250 52.865 64.000 M70.792 62.505 C 71.127 62.640,71.167 62.772,71.167 63.739 C 71.167 65.113,71.075 65.166,68.719 65.169 C 66.741 65.172,66.577 65.220,66.419 65.847 C 66.263 66.471,66.633 66.697,67.695 66.623 L 68.583 66.562 67.620 66.531 C 66.580 66.498,66.335 66.286,66.652 65.693 C 66.813 65.393,67.034 65.355,68.922 65.305 C 71.340 65.241,71.327 65.250,71.331 63.742 C 71.333 62.719,71.148 62.325,70.675 62.344 C 70.517 62.350,70.562 62.413,70.792 62.505 M77.907 63.750 L 77.917 65.083 79.167 65.167 L 80.417 65.250 80.461 69.320 C 80.505 73.288,80.576 73.833,81.052 73.833 C 81.150 73.833,81.104 73.740,80.950 73.625 C 80.702 73.441,80.664 72.929,80.626 69.250 L 80.583 65.083 79.298 65.035 L 78.013 64.986 77.955 63.701 L 77.896 62.417 77.907 63.750 M63.873 63.042 C 63.222 63.737,63.167 64.202,63.167 69.005 C 63.167 74.353,63.072 74.065,64.796 73.956 L 65.750 73.896 64.742 73.865 C 63.265 73.819,63.333 74.059,63.333 68.894 C 63.333 64.206,63.390 63.736,64.040 63.042 C 64.233 62.835,64.354 62.667,64.308 62.667 C 64.262 62.667,64.067 62.835,63.873 63.042 M46.704 68.093 C 46.664 73.585,46.713 73.969,47.428 73.787 C 47.708 73.716,47.702 73.703,47.375 73.686 C 47.169 73.675,46.984 73.648,46.964 73.625 C 46.945 73.602,46.886 71.183,46.835 68.250 L 46.741 62.917 46.704 68.093 M26.704 63.957 C 26.604 64.302,26.480 64.883,26.429 65.250 C 26.378 65.617,26.485 65.360,26.668 64.681 C 27.006 63.421,27.036 62.818,26.704 63.957 M26.205 66.500 C 26.205 66.821,26.240 66.952,26.282 66.792 C 26.323 66.631,26.323 66.369,26.282 66.208 C 26.240 66.048,26.205 66.179,26.205 66.500 M69.500 66.786 C 69.821 66.822,70.177 66.975,70.292 67.125 C 70.478 67.369,70.500 67.369,70.500 67.133 C 70.500 66.808,70.140 66.658,69.445 66.693 L 68.917 66.720 69.500 66.786 M26.052 68.083 C 26.053 68.633,26.084 68.838,26.121 68.539 C 26.158 68.239,26.157 67.789,26.119 67.539 C 26.081 67.288,26.051 67.533,26.052 68.083 M103.569 70.500 C 103.569 72.104,103.594 72.760,103.624 71.958 C 103.655 71.156,103.655 69.844,103.624 69.042 C 103.594 68.240,103.569 68.896,103.569 70.500 M70.333 68.978 C 70.333 69.087,70.165 69.245,69.958 69.328 L 69.583 69.479 69.964 69.489 C 70.332 69.500,70.649 69.093,70.437 68.882 C 70.380 68.825,70.333 68.868,70.333 68.978 M25.893 70.667 C 25.893 71.537,25.922 71.894,25.956 71.458 C 25.990 71.023,25.990 70.310,25.956 69.875 C 25.922 69.440,25.893 69.796,25.893 70.667 M50.101 69.430 C 50.046 69.575,50.000 70.582,50.000 71.668 C 50.000 73.404,49.965 73.653,49.708 73.728 C 49.481 73.795,49.490 73.807,49.750 73.780 C 50.057 73.749,50.090 73.591,50.172 71.748 C 50.221 70.649,50.322 69.619,50.398 69.458 C 50.481 69.283,50.469 69.167,50.369 69.167 C 50.277 69.167,50.157 69.285,50.101 69.430 M50.500 69.597 C 50.501 69.681,50.767 70.192,51.093 70.732 C 51.418 71.271,51.865 72.069,52.086 72.505 C 52.561 73.442,52.921 73.834,53.304 73.831 C 53.505 73.829,53.472 73.771,53.188 73.623 C 52.954 73.500,52.370 72.652,51.753 71.537 C 50.699 69.631,50.500 69.323,50.500 69.597 M66.533 69.700 C 66.402 69.832,66.333 70.538,66.333 71.771 C 66.333 73.299,66.287 73.657,66.080 73.721 C 65.903 73.776,65.915 73.791,66.122 73.773 C 66.379 73.750,66.422 73.535,66.458 72.081 C 66.520 69.578,66.455 69.691,67.876 69.624 L 69.083 69.566 67.908 69.533 C 67.175 69.512,66.658 69.575,66.533 69.700 M26.050 73.167 C 26.050 73.671,26.081 73.877,26.119 73.625 C 26.158 73.373,26.158 72.960,26.119 72.708 C 26.081 72.456,26.050 72.662,26.050 73.167 M103.269 74.603 C 103.208 75.122,103.191 75.580,103.232 75.621 C 103.273 75.662,103.359 75.272,103.423 74.756 C 103.488 74.240,103.504 73.782,103.460 73.738 C 103.416 73.694,103.330 74.083,103.269 74.603 M81.625 73.951 C 81.831 73.991,82.169 73.991,82.375 73.951 C 82.581 73.911,82.412 73.879,82.000 73.879 C 81.587 73.879,81.419 73.911,81.625 73.951 M26.205 74.667 C 26.205 74.987,26.240 75.119,26.282 74.958 C 26.323 74.798,26.323 74.535,26.282 74.375 C 26.240 74.215,26.205 74.346,26.205 74.667 M26.441 75.992 C 26.534 76.684,26.973 78.119,26.979 77.750 C 26.981 77.658,26.838 77.058,26.661 76.417 C 26.424 75.551,26.367 75.441,26.441 75.992 M54.699 75.477 C 54.253 75.759,55.322 79.154,56.760 82.023 C 58.970 86.431,62.726 90.321,67.167 92.801 C 68.158 93.354,70.924 94.505,71.229 94.491 C 71.332 94.487,71.117 94.364,70.750 94.219 C 64.198 91.629,59.757 87.659,56.784 81.736 C 55.961 80.096,54.899 77.104,54.807 76.167 L 54.750 75.583 58.602 75.539 L 62.453 75.494 62.832 76.539 C 64.353 80.740,67.274 84.052,71.239 86.074 C 72.059 86.492,72.809 86.832,72.906 86.830 C 73.004 86.828,72.446 86.509,71.667 86.120 C 67.352 83.965,64.795 81.046,62.766 75.958 L 62.517 75.333 58.717 75.336 C 56.627 75.337,54.819 75.401,54.699 75.477 M67.211 75.467 C 67.098 75.540,66.864 76.010,66.691 76.512 C 66.519 77.014,66.171 77.832,65.919 78.330 C 65.313 79.525,65.314 79.527,67.978 82.331 C 70.299 84.775,70.644 85.062,71.060 84.902 C 72.007 84.539,75.135 77.306,74.968 75.865 L 74.917 75.417 71.167 75.376 C 69.104 75.353,67.324 75.395,67.211 75.467 M74.833 75.895 C 74.833 77.313,72.513 82.961,71.373 84.318 C 70.760 85.047,70.858 85.110,68.009 82.128 C 65.417 79.415,65.476 79.538,66.144 78.204 C 66.406 77.679,66.716 76.950,66.832 76.583 C 67.190 75.455,67.013 75.500,71.104 75.500 L 74.833 75.500 74.833 75.895 M102.772 77.019 C 100.528 85.907,93.071 93.066,84.044 94.999 C 82.386 95.354,75.678 95.423,73.833 95.104 C 73.512 95.049,73.662 95.112,74.167 95.245 C 75.829 95.682,82.176 95.590,84.333 95.097 C 92.987 93.120,99.814 86.829,102.574 78.290 C 102.917 77.230,103.171 76.234,103.140 76.076 C 103.109 75.918,102.943 76.342,102.772 77.019 M27.009 78.167 C 26.986 79.117,29.186 83.461,30.802 85.655 C 33.777 89.696,39.527 93.817,43.250 94.577 C 43.525 94.633,43.188 94.462,42.500 94.197 C 35.281 91.411,30.269 86.426,27.558 79.335 C 27.259 78.555,27.013 78.029,27.009 78.167 M56.819 86.665 C 56.436 86.889,54.218 87.479,53.069 87.663 L 52.083 87.821 53.083 87.750 C 53.633 87.712,54.721 87.484,55.500 87.245 C 57.893 86.510,57.444 86.324,60.167 89.180 C 63.380 92.550,63.317 92.311,61.250 93.254 C 56.799 95.283,50.075 96.024,45.430 94.997 C 43.666 94.608,43.321 94.675,44.947 95.092 C 46.617 95.520,53.791 95.635,55.622 95.262 C 58.855 94.605,62.917 92.908,62.917 92.214 C 62.917 91.965,62.084 90.974,60.360 89.173 C 57.795 86.491,57.487 86.274,56.819 86.665 M73.917 87.167 C 74.375 87.336,74.900 87.476,75.083 87.478 C 75.267 87.480,74.967 87.337,74.417 87.160 C 73.154 86.754,72.810 86.758,73.917 87.167 M83.667 87.083 C 83.346 87.207,83.196 87.308,83.333 87.308 C 83.471 87.308,83.846 87.207,84.167 87.083 C 84.487 86.960,84.637 86.859,84.500 86.859 C 84.362 86.859,83.987 86.960,83.667 87.083 M46.667 87.437 C 47.079 87.568,47.867 87.708,48.417 87.748 L 49.417 87.821 48.446 87.665 C 47.912 87.579,47.200 87.432,46.863 87.339 C 45.952 87.086,45.800 87.163,46.667 87.437 M75.917 87.664 C 76.422 87.795,78.114 87.884,77.986 87.773 C 77.948 87.740,77.354 87.673,76.667 87.624 C 75.934 87.571,75.624 87.588,75.917 87.664 M80.667 87.667 L 79.750 87.779 80.583 87.786 C 81.042 87.791,81.642 87.737,81.917 87.667 C 82.565 87.502,82.013 87.502,80.667 87.667 M50.121 87.954 C 50.417 87.990,50.942 87.991,51.288 87.955 C 51.634 87.919,51.392 87.889,50.750 87.888 C 50.108 87.887,49.825 87.917,50.121 87.954 M78.542 87.948 C 78.702 87.990,78.965 87.990,79.125 87.948 C 79.285 87.906,79.154 87.872,78.833 87.872 C 78.512 87.872,78.381 87.906,78.542 87.948 M72.000 94.739 C 72.321 94.869,72.733 94.976,72.917 94.977 L 73.250 94.979 72.917 94.844 C 72.733 94.770,72.321 94.663,72.000 94.606 L 71.417 94.503 72.000 94.739 " stroke="none" fill="#6981b4" fill-rule="evenodd"></path></g></svg>